<svg width="20" height="21" viewBox="0 0 20 21" fill="none" xmlns="http://www.w3.org/2000/svg">
<path d="M2.5 5.46419H4.16667M4.16667 5.46419H17.5M4.16667 5.46419V17.1309C4.16667 17.5729 4.34226 17.9968 4.65482 18.3094C4.96738 18.6219 5.39131 18.7975 5.83333 18.7975H14.1667C14.6087 18.7975 15.0326 18.6219 15.3452 18.3094C15.6577 17.9968 15.8333 17.5729 15.8333 17.1309V5.46419H4.16667ZM6.66667 5.46419V3.79753C6.66667 3.3555 6.84226 2.93158 7.15482 2.61901C7.46738 2.30645 7.89131 2.13086 8.33333 2.13086H11.6667C12.1087 2.13086 12.5326 2.30645 12.8452 2.61901C13.1577 2.93158 13.3333 3.3555 13.3333 3.79753V5.46419M8.33333 9.63086V14.6309M11.6667 9.63086V14.6309" stroke="#B42318" stroke-width="1.67" stroke-linecap="round" stroke-linejoin="round"/>
</svg>
